<?xml version="1.0" encoding="UTF-8" standalone="no"?>
<!DOCTYPE svg PUBLIC "-//W3C//DTD SVG 1.1//EN" "http://www.w3.org/Graphics/SVG/1.1/DTD/svg11.dtd">
<svg width="100%" height="100%" viewBox="0 0 90 90" version="1.1" xmlns="http://www.w3.org/2000/svg" xmlns:xlink="http://www.w3.org/1999/xlink" xml:space="preserve" xmlns:serif="http://www.serif.com/" style="fill-rule:evenodd;clip-rule:evenodd;stroke-linejoin:round;stroke-miterlimit:2;">
    <g transform="matrix(1,0,0,1,-5,-5)">
        <path d="M40,95L60,95C61.4,95 62.5,93.9 62.5,92.5L62.5,72.5C62.5,71.1 61.4,70 60,70L40,70C38.6,70 37.5,71.1 37.5,72.5L37.5,92.5C37.5,93.9 38.6,95 40,95Z"/>
        <rect x="42.5" y="75" width="15" height="15" style="fill:rgb(204,229,255);"/>
        <path d="M7.5,95L27.5,95C28.9,95 30,93.9 30,92.5L30,72.5C30,71.1 28.9,70 27.5,70L7.5,70C6.1,70 5,71.1 5,72.5L5,92.5C5,93.9 6.1,95 7.5,95Z"/>
        <rect x="10" y="75" width="15" height="15" style="fill:rgb(255,242,204);"/>
        <path d="M92.5,70L72.5,70C71.1,70 70,71.1 70,72.5L70,92.5C70,93.9 71.1,95 72.5,95L92.5,95C93.9,95 95,93.9 95,92.5L95,72.5C95,71.1 93.9,70 92.5,70Z"/>
        <rect x="75" y="75" width="15" height="15" style="fill:rgb(250,205,204);"/>
        <path d="M92.5,5L7.5,5C6.1,5 5,6.1 5,7.5L5,27.5C5,28.9 6.1,30 7.5,30L40,30L40,40L30,40C27.8,40 26.7,42.7 28.2,44.3L48.2,64.3C49.2,65.3 50.8,65.3 51.7,64.3L71.7,44.3C73.2,42.8 72.1,40 69.9,40L60,40L60,30L92.5,30C93.9,30 95,28.9 95,27.5L95,7.5C95,6.1 93.9,5 92.5,5Z"/>
        <path d="M90,25L57.5,25C56.1,25 55,26.1 55,27.5L55,42.5C55,43.9 56.1,45 57.5,45L64,45L50,59L36,45L42.5,45C43.9,45 45,43.9 45,42.5L45,27.5C45,26.1 43.9,25 42.5,25L10,25L10,10L90,10L90,25Z" style="fill:rgb(186,200,211);"/>
    </g>
</svg>
